<?xml version="1.0" standalone="no"?><!DOCTYPE svg PUBLIC "-//W3C//DTD SVG 1.1//EN" "http://www.w3.org/Graphics/SVG/1.1/DTD/svg11.dtd"><svg t="1534494272560" class="icon" style="" viewBox="0 0 1024 1024" version="1.1" xmlns="http://www.w3.org/2000/svg" p-id="6474" xmlns:xlink="http://www.w3.org/1999/xlink" width="200" height="200"><defs><style type="text/css"></style></defs><path d="M513.884418 838.737576c-20.085454 0-39.693024-1.453095-59.068304-3.539616-58.627259 54.961776-148.09799 92.070952-215.500099 114.101711-13.892405-2.140757-23.11137-7.361665-29.003568-13.925151 39.302121-53.370535 18.315134-142.238538 1.025353-193.272865-89.488127-67.086931-145.936767-163.17436-145.936767-270.305309 0-202.65249 200.794166-366.940207 448.483384-366.940207 247.688195 0 448.482361 164.287717 448.482361 366.940207C962.365756 674.449859 761.572614 838.737576 513.884418 838.737576zM310.028521 403.843698c-30.029944 0-54.362118 24.349571-54.362118 54.362118s24.332175 54.361095 54.362118 54.361095c30.029944 0 54.361095-24.348548 54.361095-54.361095S340.057441 403.843698 310.028521 403.843698zM527.473925 403.843698c-30.029944 0-54.362118 24.349571-54.362118 54.362118s24.332175 54.361095 54.362118 54.361095 54.361095-24.348548 54.361095-54.361095S557.503868 403.843698 527.473925 403.843698zM744.920352 403.843698c-30.030967 0-54.361095 24.349571-54.361095 54.362118s24.330128 54.361095 54.361095 54.361095c30.029944 0 54.361095-24.348548 54.361095-54.361095S774.950296 403.843698 744.920352 403.843698z" p-id="6475"></path></svg>