<?xml version="1.0" standalone="no"?><!DOCTYPE svg PUBLIC "-//W3C//DTD SVG 1.1//EN" "http://www.w3.org/Graphics/SVG/1.1/DTD/svg11.dtd"><svg class="icon" width="32px" height="32.00px" viewBox="0 0 1024 1024" version="1.1" xmlns="http://www.w3.org/2000/svg"><path fill="#333333" d="M725.333333 460.8V426.666667c0-119.466667-93.866667-213.333333-213.333333-213.333334s-213.333333 93.866667-213.333333 213.333334v34.133333l-21.333334 8.533333-21.333333-8.533333V426.666667c0-140.8 115.2-256 256-256s256 115.2 256 256v34.133333l-21.333333 8.533333-21.333334-8.533333z m42.666667 145.066667v34.133333c0 93.866667-76.8 170.666667-170.666667 170.666667h-42.666666v-42.666667h-21.333334H597.333333c72.533333 0 128-55.466667 128-128v-34.133333l21.333334-8.533334 21.333333 8.533334zM597.333333 768h42.666667v-8.533333c51.2-17.066667 85.333333-64 85.333333-119.466667v-4.266667c-25.6-8.533333-42.666667-34.133333-42.666666-59.733333v-85.333333c0-29.866667 17.066667-51.2 42.666666-59.733334V426.666667c0-119.466667-93.866667-213.333333-213.333333-213.333334s-213.333333 93.866667-213.333333 213.333334v4.266666c25.6 8.533333 42.666667 34.133333 42.666666 59.733334v85.333333c0 34.133333-29.866667 64-64 64S213.333333 610.133333 213.333333 576v-85.333333c0-29.866667 17.066667-51.2 42.666667-59.733334V426.666667c0-140.8 115.2-256 256-256s256 115.2 256 256v4.266666c25.6 8.533333 42.666667 34.133333 42.666667 59.733334v85.333333c0 29.866667-17.066667 51.2-42.666667 59.733333v4.266667c0 93.866667-76.8 170.666667-170.666667 170.666667h-85.333333c-25.6 0-42.666667-17.066667-42.666667-42.666667s17.066667-42.666667 42.666667-42.666667h42.666667c25.6 0 42.666667 17.066667 42.666666 42.666667z m-320-298.666667c-12.8 0-21.333333 8.533333-21.333333 21.333334v85.333333c0 12.8 8.533333 21.333333 21.333333 21.333333s21.333333-8.533333 21.333334-21.333333v-85.333333c0-12.8-8.533333-21.333333-21.333334-21.333334z m469.333334 0c-12.8 0-21.333333 8.533333-21.333334 21.333334v85.333333c0 12.8 8.533333 21.333333 21.333334 21.333333s21.333333-8.533333 21.333333-21.333333v-85.333333c0-12.8-8.533333-21.333333-21.333333-21.333334z" /></svg>